<svg width="32" height="32" viewBox="0 0 32 32" fill="currentColor" xmlns="http://www.w3.org/2000/svg">
    <path fill-rule="evenodd" clip-rule="evenodd" d="M12.7879 17.5181C12.963 17.1985 13.2974 17 13.6607 17H20.492C21.239 17 21.8964 16.59 22.2351 15.97L25.6024 9.83041C26 9 26 8.83782 26 8.5C26 7.94772 25.5541 7.5 25.004 7.5H10.0637C10.0309 7.5 9.9984 7.5016 9.96638 7.50471L9.79648 7.14435C9.46705 6.44557 8.76598 6 7.99596 6H6.99602C6.44594 6 6 6.44772 6 7C6 7.55228 6.44594 8 6.99602 8H7.22026C7.6916 8 8.12079 8.27254 8.32278 8.70011L11.1396 14.6627C11.4146 15.2448 11.3935 15.9243 11.0828 16.488L10.2331 18.03C9.50598 19.37 10.4622 21 11.9761 21H22.9323C23.4824 21 23.9283 20.5523 23.9283 20C23.9283 19.4477 23.4824 19 22.9323 19H13.6606C12.9031 19 12.4228 18.1845 12.7879 17.5181ZM21.0605 13.9677L23.5207 9.5H10.9071L12.9605 13.8557C13.29 14.5544 13.991 15 14.761 15H19.3172C20.0421 15 20.7098 14.6046 21.0605 13.9677Z"/>
    <path d="M11.7089 21.7143C10.5274 21.7143 9.57143 22.6786 9.57143 23.8571C9.57143 25.0357 10.5274 26 11.7089 26C12.8904 26 13.8571 25.0357 13.8571 23.8571C13.8571 22.6786 12.8904 21.7143 11.7089 21.7143Z"/>
    <path d="M21.7089 21.7143C20.5274 21.7143 19.5714 22.6786 19.5714 23.8571C19.5714 25.0357 20.5274 26 21.7089 26C22.8904 26 23.8571 25.0357 23.8571 23.8571C23.8571 22.6786 22.8904 21.7143 21.7089 21.7143Z"/>
</svg>