<svg width="48" height="48" viewBox="0 0 48 48" fill="currentColor" xmlns="http://www.w3.org/2000/svg">
    <path d="M24 21.5C24.8284 21.5 25.5 22.1716 25.5 23V33C25.5 33.8284 24.8284 34.5 24 34.5C23.1716 34.5 22.5 33.8284 22.5 33V23C22.5 22.1716 23.1716 21.5 24 21.5Z"/>
    <path d="M24 18C25.1046 18 26 17.1046 26 16C26 14.8954 25.1046 14 24 14C22.8954 14 22 14.8954 22 16C22 17.1046 22.8954 18 24 18Z"/>
    <path fill-rule="evenodd" clip-rule="evenodd" d="M6.5 24C6.5 14.335 14.335 6.5 24 6.5C33.665 6.5 41.5 14.335 41.5 24C41.5 33.665 33.665 41.5 24 41.5C14.335 41.5 6.5 33.665 6.5 24ZM24 9.5C15.9919 9.5 9.5 15.9919 9.5 24C9.5 32.0081 15.9919 38.5 24 38.5C32.0081 38.5 38.5 32.0081 38.5 24C38.5 15.9919 32.0081 9.5 24 9.5Z"/>
</svg>