<svg width="48" height="48" viewBox="0 0 48 48" fill="currentColor" xmlns="http://www.w3.org/2000/svg">
    <path d="M16.9389 16.9394C17.5246 16.3537 18.4744 16.3537 19.0602 16.9394L23.9995 21.8788L28.9389 16.9395C29.5247 16.3537 30.4744 16.3537 31.0602 16.9395C31.646 17.5252 31.646 18.475 31.0602 19.0608L26.1208 24.0001L31.0602 28.9394C31.646 29.5252 31.646 30.475 31.0602 31.0608C30.4744 31.6466 29.5246 31.6466 28.9389 31.0608L23.9995 26.1214L19.0602 31.0608C18.4744 31.6466 17.5247 31.6466 16.9389 31.0608C16.3531 30.475 16.3531 29.5252 16.9389 28.9395L21.8782 24.0001L16.9389 19.0608C16.3531 18.475 16.3531 17.5252 16.9389 16.9394Z"/>
    <path fill-rule="evenodd" clip-rule="evenodd" d="M14.633 7.53764C20.8081 6.84748 27.1909 6.84748 33.366 7.53764C37.0187 7.94589 39.9685 10.8232 40.3982 14.4971C41.1367 20.8109 41.1367 27.1893 40.3982 33.5032C39.9685 37.1771 37.0187 40.0544 33.366 40.4626C27.1909 41.1528 20.8081 41.1528 14.633 40.4626C10.9802 40.0544 8.03042 37.1771 7.60072 33.5032C6.86226 27.1893 6.86226 20.8109 7.60072 14.4971C8.03042 10.8232 10.9802 7.94589 14.633 7.53764ZM33.0328 10.5191C27.0791 9.85367 20.9198 9.85367 14.9662 10.5191C12.6773 10.7749 10.8452 12.5814 10.5804 14.8456C9.86903 20.9279 9.86903 27.0724 10.5804 33.1547C10.8452 35.4189 12.6773 37.2254 14.9662 37.4812C20.9199 38.1466 27.0791 38.1466 33.0328 37.4812C35.3216 37.2254 37.1537 35.4189 37.4185 33.1547C38.1299 27.0724 38.1299 20.9279 37.4185 14.8456C37.1537 12.5814 35.3216 10.7749 33.0328 10.5191Z"/>
</svg>