<svg width="48" height="48" viewBox="0 0 48 48" fill="none" xmlns="http://www.w3.org/2000/svg">
    <path d="M27 19.5C27 18.6716 26.3284 18 25.5 18H13.5C12.6716 18 12 18.6716 12 19.5C12 20.3285 12.6716 21 13.5 21H25.5C26.3284 21 27 20.3285 27 19.5Z" fill="#F1F1F1"/>
    <path d="M25 25.5C25 24.6716 24.3284 24 23.5 24H13.5C12.6716 24 12 24.6716 12 25.5C12 26.3285 12.6716 27 13.5 27H23.5C24.3284 27 25 26.3285 25 25.5Z" fill="#F1F1F1"/>
    <path d="M25.5 30C26.3284 30 27 30.6716 27 31.5C27 32.3285 26.3284 33 25.5 33H13.5C12.6716 33 12 32.3285 12 31.5C12 30.6716 12.6716 30 13.5 30H25.5Z" fill="#F1F1F1"/>
    <path fill-rule="evenodd" clip-rule="evenodd" d="M12 43.5H38C41.0376 43.5 43.5 41.0376 43.5 38V27C43.5 26.1716 42.8284 25.5 42 25.5H35.5V9.88642C35.5 7.03962 32.2822 5.38369 29.9657 7.03836L29.6156 7.28842C28.0546 8.40341 25.9402 8.39966 24.3719 7.27945C21.7641 5.41678 18.2359 5.41678 15.6281 7.27945C14.0598 8.39966 11.9454 8.40341 10.3844 7.28842L10.0343 7.03836C7.71779 5.38369 4.5 7.03962 4.5 9.88642V36C4.5 40.1422 7.85786 43.5 12 43.5ZM17.3719 9.72065C18.9365 8.60305 21.0635 8.60305 22.6281 9.72065C25.2322 11.5807 28.7479 11.5949 31.3593 9.72962L31.7094 9.47956C32.0403 9.24318 32.5 9.47974 32.5 9.88642V38C32.5 38.9003 32.7163 39.75 33.0997 40.5H12C9.51472 40.5 7.5 38.4853 7.5 36V9.88642C7.5 9.47974 7.95969 9.24318 8.29062 9.47956L8.64071 9.72963C11.2521 11.5949 14.7678 11.5807 17.3719 9.72065ZM35.5 38V28.5H40.5V38C40.5 39.3808 39.3807 40.5 38 40.5C36.6193 40.5 35.5 39.3808 35.5 38Z" fill="#F1F1F1"/>
</svg>
