<svg width="48" height="48" viewBox="0 0 48 48" fill="none" xmlns="http://www.w3.org/2000/svg">
<path fill-rule="evenodd" clip-rule="evenodd" d="M24 6.5C14.335 6.5 6.5 14.335 6.5 24C6.5 33.665 14.335 41.5 24 41.5C33.665 41.5 41.5 33.665 41.5 24C41.5 14.335 33.665 6.5 24 6.5ZM9.5 24C9.5 15.9919 15.9919 9.5 24 9.5C32.0081 9.5 38.5 15.9919 38.5 24C38.5 32.0081 32.0081 38.5 24 38.5C15.9919 38.5 9.5 32.0081 9.5 24ZM19.261 16.6947C19.7312 16.4284 20.3083 16.4357 20.7717 16.7138L30.7717 22.7138C31.2236 22.9848 31.5 23.4731 31.5 24C31.5 24.5269 31.2236 25.0152 30.7717 25.2862L20.7717 31.2862C20.3083 31.5643 19.7312 31.5716 19.261 31.3053C18.7907 31.039 18.5 30.5404 18.5 30V18C18.5 17.4596 18.7907 16.961 19.261 16.6947ZM21.5 27.3507L27.0845 24L21.5 20.6493V27.3507Z" fill="#F1F1F1"/>
</svg>