	
<svg width="48" height="48" viewBox="0 0 48 48" fill="none" xmlns="http://www.w3.org/2000/svg">
    <path fill-rule="evenodd" clip-rule="evenodd" d="M14 6.5C14.8284 6.5 15.5 7.17157 15.5 8V11.3353C21.1555 10.8316 26.8445 10.8316 32.5 11.3353V8C32.5 7.17157 33.1716 6.5 34 6.5C34.8284 6.5 35.5 7.17157 35.5 8V11.6329C38.4861 12.0551 40.8451 14.4169 41.2445 17.4297L41.4176 18.7356C42.1457 24.2282 42.0828 29.7969 41.2309 35.2717C40.8088 37.9838 38.6055 40.0669 35.874 40.3363L33.488 40.5716C27.1779 41.1939 20.8219 41.1939 14.5119 40.5716L12.1258 40.3363C9.39436 40.0669 7.19104 37.9838 6.76902 35.2717C5.91711 29.7969 5.85423 24.2282 6.5823 18.7356L6.7554 17.4297C7.15475 14.4169 9.51385 12.055 12.5 11.6329V8C12.5 7.17157 13.1716 6.5 14 6.5ZM14.8903 14.4056C20.9487 13.8082 27.0512 13.8082 33.1095 14.4056L34.9205 14.5842C36.654 14.7551 38.0416 16.0971 38.2705 17.8239L38.4436 19.1298C38.5041 19.586 38.5588 20.0428 38.6078 20.5H9.39212C9.44109 20.0428 9.49581 19.586 9.55628 19.1298L9.72939 17.8239C9.95828 16.0971 11.3459 14.7551 13.0794 14.5842L14.8903 14.4056ZM9.15366 23.5C8.9573 27.2762 9.15076 31.0664 9.73335 34.8104C9.94503 36.1708 11.0502 37.2156 12.4203 37.3508L14.8063 37.5861C20.9206 38.189 27.0793 38.189 33.1936 37.5861L35.5796 37.3508C36.9497 37.2156 38.0549 36.1708 38.2665 34.8104C38.8491 31.0664 39.0426 27.2762 38.8462 23.5H9.15366Z" fill="#F1F1F1"/>
</svg>