<svg width="15" height="18" viewBox="0 0 15 18" fill="currentColor" xmlns="http://www.w3.org/2000/svg">
<path fill-rule="evenodd" clip-rule="evenodd" d="M8.29758 15.7499C8.46381 15.7499 8.61726 15.6608 8.69954 15.5163L12.0455 9.64309C12.4891 8.86455 12.6752 7.96575 12.5773 7.07509L12.2242 3.86142C12.1613 3.28964 11.7125 2.83673 11.1413 2.76878L9.02422 2.51694C7.62665 2.35069 6.20962 2.4948 4.87414 2.939C4.2146 3.15837 3.68633 3.65896 3.43182 4.30575L1.72773 8.63631C1.68607 8.74219 1.65727 8.85269 1.64197 8.96544C1.51273 9.91755 2.3462 10.7207 3.29287 10.5563L6.70868 9.96301C7.78767 9.7756 8.71959 10.7278 8.509 11.8025L7.84359 15.1984C7.7876 15.4841 8.00638 15.7499 8.29758 15.7499ZM10.0029 16.2588C9.6538 16.8716 9.0028 17.2499 8.2976 17.2499C7.06221 17.25 6.13403 16.1223 6.37159 14.9099L7.03699 11.5141C7.03984 11.4995 7.03831 11.4906 7.03631 11.4843C7.03384 11.4764 7.02878 11.4672 7.02042 11.4586C7.01206 11.4501 7.00296 11.4448 6.99516 11.4422C6.98882 11.4401 6.97997 11.4383 6.96536 11.4409L3.54955 12.0342C1.60337 12.3722 -0.110097 10.721 0.155601 8.76367C0.187065 8.53189 0.246258 8.30472 0.33191 8.08706L2.036 3.75649C2.45328 2.69606 3.31939 1.87532 4.40072 1.51566C5.94557 1.00183 7.58474 0.83513 9.2014 1.02744L11.3185 1.27928C12.5827 1.42967 13.5761 2.43207 13.7152 3.69757L14.0683 6.91125C14.2008 8.11625 13.9489 9.33228 13.3489 10.3856L10.0029 16.2588Z" />
</svg>
