<svg width="24" height="24" viewBox="0 0 24 24" fill="currentColor" xmlns="http://www.w3.org/2000/svg">
    <path fill-rule="evenodd" clip-rule="evenodd" d="M12 3.25C12.4142 3.25 12.75 3.58579 12.75 4V12.1893L14.9697 9.96967C15.2626 9.67678 15.7374 9.67678 16.0303 9.96967C16.3232 10.2626 16.3232 10.7374 16.0303 11.0303L12.5303 14.5303C12.3897 14.671 12.1989 14.75 12 14.75C11.8011 14.75 11.6103 14.671 11.4697 14.5303L7.96967 11.0303C7.67678 10.7374 7.67678 10.2626 7.96967 9.96967C8.26256 9.67678 8.73744 9.67678 9.03033 9.96967L11.25 12.1893V4C11.25 3.58579 11.5858 3.25 12 3.25Z"/>
    <path fill-rule="evenodd" clip-rule="evenodd" d="M5 15.25C5.41421 15.25 5.75 15.5858 5.75 16V17.5C5.75 17.9142 6.08579 18.25 6.5 18.25H17.5C17.9142 18.25 18.25 17.9142 18.25 17.5V16C18.25 15.5858 18.5858 15.25 19 15.25C19.4142 15.25 19.75 15.5858 19.75 16V17.5C19.75 18.7426 18.7426 19.75 17.5 19.75H6.5C5.25736 19.75 4.25 18.7426 4.25 17.5V16C4.25 15.5858 4.58579 15.25 5 15.25Z"/>
</svg>
