<svg width="24" height="24" viewBox="0 0 24 24" fill="currentColor" xmlns="http://www.w3.org/2000/svg">
    <path fill-rule="evenodd" clip-rule="evenodd" d="M9.7108 3.7538C10.9284 5.2822 12.0198 6.9158 12.9691 8.6389C14.6859 7.9975 16.3029 7.1516 17.7906 6.1308C16.2835 4.5114 14.135 3.5 11.75 3.5C11.0456 3.5 10.3625 3.5881 9.7108 3.7538ZM18.7103 7.3187C17.1538 8.395 15.4633 9.2914 13.6691 9.9778C13.9546 10.5542 14.2245 11.1396 14.4784 11.7336C15.1401 11.636 15.8172 11.5854 16.5061 11.5854C17.7108 11.5854 18.8803 11.7402 19.9953 12.0313C19.9984 11.938 20 11.8442 20 11.75C20 10.1183 19.527 8.5986 18.7103 7.3187ZM19.8067 13.534C18.7572 13.2418 17.6505 13.0854 16.5061 13.0854C16.015 13.0854 15.5306 13.1142 15.0546 13.1703C15.6924 14.8702 16.2008 16.6334 16.5676 18.4481C18.1857 17.2821 19.3635 15.545 19.8067 13.534ZM15.195 19.2487C14.8222 17.2443 14.2692 15.3032 13.5535 13.4428C10.6986 14.1476 8.237 15.8516 6.5609 18.1641C7.9786 19.3127 9.7834 20 11.75 20C12.9809 20 14.1473 19.7309 15.195 19.2487ZM5.4762 17.1077C7.3088 14.6621 9.9369 12.8452 12.9772 12.0416C12.7447 11.5114 12.4988 10.9884 12.2399 10.473C9.9931 11.1721 7.6043 11.5488 5.128 11.5488C4.5823 11.5488 4.0407 11.5305 3.5039 11.4945C3.5013 11.5793 3.5 11.6645 3.5 11.75C3.5 13.7952 4.2434 15.6658 5.4762 17.1077ZM3.6852 10.0031C4.1621 10.0334 4.6433 10.0488 5.128 10.0488C7.3501 10.0488 9.4962 9.7255 11.5222 9.1235C10.5619 7.4139 9.4545 5.7978 8.2171 4.2924C5.9353 5.3753 4.2302 7.4747 3.6852 10.0031ZM8.1563 2.6839C9.2693 2.2423 10.4823 2 11.75 2C14.9006 2 17.7023 3.4952 19.4835 5.8117C20.7479 7.456 21.5 9.5162 21.5 11.75C21.5 12.2135 21.4676 12.6698 21.4049 13.1168C20.9664 16.24 19.0501 18.8859 16.3884 20.3279C15.0083 21.0757 13.4276 21.5 11.75 21.5C9.1559 21.5 6.797 20.4859 5.0508 18.834C3.173 17.0577 2 14.5402 2 11.75C2 11.36 2.0229 10.9751 2.0676 10.5966C2.4937 6.9837 4.8931 3.9784 8.1563 2.6839Z"/>
</svg>