<svg width="24" height="24" viewBox="0 0 24 24" fill="currentColor" xmlns="http://www.w3.org/2000/svg">
    <path d="M7.5204 3C6.6889 3 6 3.7447 6 4.6434V20.0249C6 20.4421 6.2732 20.8241 6.5939 20.9493C6.9087 21.0713 7.3422 20.9717 7.5917 20.6668L12.3905 14.504H15.0036C15.7252 14.504 16.3607 13.9326 16.5003 13.1687L17.9732 4.9516C18.1514 3.9533 17.4179 3 16.4765 3H7.5204ZM7.5204 4.6434H16.4765L15.8826 7.9303H10.9176C10.7275 7.9303 10.5612 8.11 10.5612 8.3155V9.1885C10.5612 9.3939 10.7275 9.5737 10.9176 9.5737H15.5976L15.0036 12.8605H12.0103C11.7847 12.8541 11.5649 12.9568 11.4164 13.143L7.5204 18.2017V4.6434Z"/>
</svg>