<svg width="15" height="18" viewBox="0 0 15 18" fill="currentColor" xmlns="http://www.w3.org/2000/svg">
<path fill-rule="evenodd" clip-rule="evenodd" d="M6.32518 2.25C6.15895 2.25 6.00551 2.33919 5.92322 2.48362L2.57724 8.35685C2.13371 9.13539 1.94758 10.0342 2.04546 10.9249L2.3986 14.1385C2.46143 14.7103 2.9103 15.1632 3.4815 15.2312L5.59855 15.483C6.99611 15.6493 8.41314 15.5051 9.74863 15.0609C10.4082 14.8416 10.9364 14.341 11.1909 13.6942L12.895 9.36363C12.9367 9.25775 12.9655 9.14725 12.9808 9.03451C13.11 8.0824 12.2766 7.27924 11.3299 7.44367L7.91409 8.03694C6.83509 8.22434 5.90318 7.27216 6.11376 6.19744L6.77917 2.80158C6.83517 2.51581 6.61638 2.25 6.32518 2.25ZM4.61989 1.74111C4.96897 1.12836 5.61996 0.750006 6.32517 0.75C7.56056 0.749989 8.48873 1.87768 8.25118 3.09001L7.58577 6.48587C7.58292 6.50042 7.58445 6.50931 7.58646 6.51569C7.58892 6.52355 7.59399 6.53276 7.60235 6.5413C7.6107 6.54984 7.6198 6.5551 7.62761 6.55774C7.63394 6.55988 7.6428 6.5616 7.65741 6.55906L11.0732 5.96579C13.0194 5.62777 14.7329 7.27891 14.4672 9.23627C14.4357 9.46806 14.3765 9.69522 14.2909 9.91289L12.5868 14.2435C12.1695 15.3039 11.3034 16.1246 10.222 16.4843C8.6772 16.9981 7.03802 17.1648 5.42136 16.9725L3.30431 16.7207C2.04011 16.5703 1.04664 15.5679 0.907574 14.3024L0.554431 11.0887C0.422015 9.88369 0.673834 8.66766 1.27391 7.61434L4.61989 1.74111Z" />
</svg>
