<svg width="32" height="32" viewBox="0 0 32 32" fill="currentColor" xmlns="http://www.w3.org/2000/svg">
    <path fill-rule="evenodd" clip-rule="evenodd" d="M26.3334 16C26.3334 15.4477 25.8857 15 25.3334 15H6.66675C6.11446 15 5.66675 15.4477 5.66675 16C5.66675 16.5523 6.11446 17 6.66675 17H25.3334C25.8857 17 26.3334 16.5523 26.3334 16Z"/>
    <path fill-rule="evenodd" clip-rule="evenodd" d="M26.3334 9.33331C26.3334 8.78103 25.8857 8.33331 25.3334 8.33331H6.66675C6.11446 8.33331 5.66675 8.78103 5.66675 9.33331C5.66675 9.8856 6.11446 10.3333 6.66675 10.3333H25.3334C25.8857 10.3333 26.3334 9.8856 26.3334 9.33331Z"/>
    <path fill-rule="evenodd" clip-rule="evenodd" d="M26.3334 22.6666C26.3334 22.1144 25.8857 21.6666 25.3334 21.6666H6.66675C6.11446 21.6666 5.66675 22.1144 5.66675 22.6666C5.66675 23.2189 6.11446 23.6666 6.66675 23.6666H25.3334C25.8857 23.6666 26.3334 23.2189 26.3334 22.6666Z"/>
</svg>
