<svg width="24" height="24" viewBox="0 0 24 24" fill="currentColor" xmlns="http://www.w3.org/2000/svg">
    <path fill-rule="evenodd" clip-rule="evenodd" d="M11.75 2C6.3652 2 2 6.3652 2 11.75C2 17.1348 6.3652 21.5 11.75 21.5C17.1348 21.5 21.5 17.1348 21.5 11.75C21.5 6.3652 17.1348 2 11.75 2ZM3.5 11.75C3.5 7.1937 7.1937 3.5 11.75 3.5C16.3063 3.5 20 7.1937 20 11.75C20 16.3063 16.3063 20 11.75 20C10.8927 20 10.066 19.8692 9.2886 19.6266C9.7112 18.963 10.0473 18.248 10.2887 17.4991L10.8053 15.5219C11.0187 15.8265 11.3048 16.0729 11.6377 16.2388C11.9705 16.4047 12.3395 16.4848 12.7112 16.4719C15.2465 16.4719 17.0278 14.1681 17.0278 11.3063C17.0278 8.5572 14.7834 6.5028 11.9037 6.5028C8.3175 6.5028 6.4115 8.9134 6.4115 11.5319C6.4115 12.755 7.0587 14.2691 8.0978 14.7559C8.2521 14.8272 8.3531 14.7559 8.3768 14.6431C8.4006 14.5304 8.5429 13.961 8.6083 13.6995C8.6185 13.6581 8.6186 13.6143 8.6082 13.5729C8.5979 13.5315 8.5776 13.4933 8.549 13.4616C8.1565 12.9085 7.9487 12.2457 7.9553 11.5675C7.9532 11.0807 8.05 10.5986 8.2396 10.1503C8.4293 9.702 8.708 9.2968 9.0588 8.9593C9.4096 8.6218 9.8253 8.359 10.2806 8.1868C10.7359 8.0146 11.2214 7.9366 11.7078 7.9575C12.1633 7.9309 12.6194 7.9995 13.0469 8.1589C13.4745 8.3184 13.8641 8.5652 14.1909 8.8836C14.5177 9.2021 14.7746 9.5852 14.9451 10.0084C15.1156 10.4317 15.196 10.8858 15.1812 11.3419C15.1812 13.5863 14.0412 15.1478 12.5687 15.1478C12.3785 15.1624 12.1875 15.131 12.012 15.0562C11.8365 14.9813 11.6817 14.8653 11.5605 14.7179C11.4393 14.5706 11.3555 14.3962 11.316 14.2095C11.2765 14.0229 11.2826 13.8294 11.3337 13.6456C11.4181 13.2954 11.5295 12.9347 11.638 12.5832C11.8349 11.9455 12.0225 11.3381 12.0225 10.8788C12.043 10.7296 12.0311 10.5777 11.9875 10.4335C11.9439 10.2894 11.8696 10.1564 11.7698 10.0436C11.67 9.9308 11.547 9.8409 11.4092 9.7801C11.2714 9.7193 11.1221 9.689 10.9715 9.6913C10.1403 9.6913 9.4693 10.5581 9.4693 11.71C9.4631 12.1171 9.5399 12.5211 9.695 12.8975L8.7153 17.0538C8.5953 17.8391 8.595 18.6382 8.7145 19.4236C8.0639 19.1661 7.4539 18.8282 6.8967 18.4222C5.9196 17.7084 5.1032 16.7848 4.5129 15.7093C4.2807 15.2862 4.0871 14.8462 3.933 14.3946C3.6522 13.5644 3.5 12.675 3.5 11.75Z"/>
</svg>