<svg width="29" height="30" viewBox="0 0 29 30" fill="currentColor" xmlns="http://www.w3.org/2000/svg">
    <path fill-rule="evenodd" clip-rule="evenodd" d="M6.1808 28.9035L26.274 18.1652C29.1087 16.6503 29.1087 12.7497 26.274 11.2348L6.1808 0.496557C4.88769 -0.194506 3.34623 -0.1355 2.1283 0.495357C0.906043 1.12846 1.0095e-06 2.34351 9.38766e-07 3.96179L0 25.4382C-7.07369e-08 27.0565 0.906042 28.2715 2.1283 28.9046C3.34622 29.5355 4.88769 29.5945 6.1808 28.9035ZM24.8221 13.8026C25.5742 14.2045 25.5742 15.1955 24.8221 15.5974L4.72891 26.3356C3.94628 26.7539 3.01386 26.2165 3.01386 25.4382L3.01386 3.96179C3.01386 3.18347 3.94628 2.6461 4.72891 3.06436L24.8221 13.8026Z"/>
</svg>