<svg width="24" height="24" viewBox="0 0 24 24" fill="currentColor" xmlns="http://www.w3.org/2000/svg">
    <path fill-rule="evenodd" clip-rule="evenodd" d="M12 3.25C7.16751 3.25 3.25 7.16751 3.25 12C3.25 16.8325 7.16751 20.75 12 20.75C16.8325 20.75 20.75 16.8325 20.75 12C20.75 7.16751 16.8325 3.25 12 3.25ZM4.75 12C4.75 7.99594 7.99594 4.75 12 4.75C16.0041 4.75 19.25 7.99594 19.25 12C19.25 16.0041 16.0041 19.25 12 19.25C7.99594 19.25 4.75 16.0041 4.75 12ZM9.63048 8.34735C9.86561 8.21422 10.1542 8.21786 10.3859 8.35688L15.3859 11.3569C15.6118 11.4924 15.75 11.7366 15.75 12C15.75 12.2634 15.6118 12.5076 15.3859 12.6431L10.3859 15.6431C10.1542 15.7821 9.86561 15.7858 9.63048 15.6526C9.39534 15.5195 9.25 15.2702 9.25 15V9C9.25 8.7298 9.39534 8.48048 9.63048 8.34735ZM10.75 13.6754L13.5423 12L10.75 10.3246V13.6754Z"/>
</svg>
