<svg width="128" height="102" viewBox="0 0 128 102" fill="currentColor" xmlns="http://www.w3.org/2000/svg">
    <path d="M0 101.795V67.3601C0 54.6734 2.32543 43.0943 6.9763 32.6228C11.6272 22.1513 19.5134 11.277 30.6351 0L51.2607 16.0094C43.3744 23.863 37.7125 31.2132 34.2749 38.06C30.8373 44.7053 29.1185 52.0555 29.1185 60.1106L17.2891 46.8198H56.1137V101.795H0ZM71.8862 101.795V67.3601C71.8862 54.6734 74.2117 43.0943 78.8625 32.6228C83.5134 22.1513 91.3997 11.277 102.521 0L123.147 16.0094C115.261 23.863 109.599 31.2132 106.161 38.06C102.724 44.7053 101.005 52.0555 101.005 60.1106L89.1753 46.8198H128V101.795H71.8862Z"/>
</svg>