<svg width="24" height="24" viewBox="0 0 24 24" fill="currentColor" xmlns="http://www.w3.org/2000/svg">
    <path fill-rule="evenodd" clip-rule="evenodd" d="M4.1 4.9C4.1 4.4029 4.5029 4 5 4C13.2291 4 19.9 10.6709 19.9 18.9C19.9 19.397 19.4971 19.8 19 19.8C18.5029 19.8 18.1 19.397 18.1 18.9C18.1 11.665 12.2349 5.8 5 5.8C4.5029 5.8 4.1 5.397 4.1 4.9ZM4.1 10.9C4.1 10.4029 4.5029 10 5 10C7.3604 10 9.6242 10.9377 11.2933 12.6067C12.9623 14.2758 13.9 16.5395 13.9 18.9C13.9 19.397 13.4971 19.8 13 19.8C12.5029 19.8 12.1 19.397 12.1 18.9C12.1 17.0169 11.352 15.211 10.0205 13.8795C8.689 12.548 6.883 11.8 5 11.8C4.5029 11.8 4.1 11.397 4.1 10.9ZM8 17.9C8 19.0045 7.1046 19.9 6 19.9C4.8954 19.9 4 19.0045 4 17.9C4 16.7954 4.8954 15.9 6 15.9C7.1046 15.9 8 16.7954 8 17.9Z"/>
</svg>