<svg width="24" height="24" viewBox="0 0 24 24" fill="currentColor" xmlns="http://www.w3.org/2000/svg">
    <path fill-rule="evenodd" clip-rule="evenodd" d="M6.38048 13.7696C6.42428 13.7844 6.46848 13.7948 6.51258 13.8012C6.56078 13.9144 6.62298 14.0607 6.69548 14.2318C6.87258 14.6494 7.11118 15.2143 7.35748 15.8035C7.85968 17.0052 8.36628 18.2439 8.47818 18.5985C8.61668 19.0368 8.76308 19.3348 8.92298 19.5383C9.00558 19.6435 9.10118 19.7353 9.21298 19.8049C9.26928 19.8399 9.32878 19.8686 9.39088 19.89C9.39358 19.891 9.39628 19.8919 9.39908 19.8928C9.71908 20.0136 10.0109 19.9633 10.1935 19.9018C10.2913 19.8688 10.3704 19.8291 10.4264 19.7969C10.455 19.7804 10.4791 19.7651 10.4984 19.7521L10.5029 19.7491L13.3291 17.9866L16.5937 20.4894C16.6418 20.5263 16.6944 20.5573 16.75 20.5816C17.1422 20.7527 17.522 20.8124 17.8792 20.7636C18.2359 20.7149 18.519 20.5651 18.7298 20.3964C18.9362 20.2313 19.0762 20.0463 19.1633 19.9089C19.2078 19.8387 19.2412 19.7766 19.2648 19.7291C19.2766 19.7052 19.2861 19.6846 19.2935 19.6681L19.3029 19.6463L19.3065 19.6377L19.308 19.6341L19.3086 19.6324L19.3093 19.6308C19.3264 19.5879 19.3396 19.5435 19.3486 19.4982L22.3288 4.47268C22.3383 4.42468 22.3431 4.37578 22.3431 4.32678C22.3431 3.88678 22.1773 3.46838 21.7875 3.21448C21.4543 2.99748 21.0831 2.98818 20.8486 3.00598C20.5955 3.02518 20.3618 3.08768 20.205 3.13758C20.1234 3.16348 20.0549 3.18858 20.0056 3.20768C19.9808 3.21728 19.9605 3.22558 19.9453 3.23188L19.934 3.23668L3.22028 9.79318L3.21808 9.79398C3.20738 9.79788 3.19378 9.80298 3.17748 9.80928C3.14508 9.82188 3.10178 9.83958 3.05108 9.86258C2.95228 9.90738 2.81378 9.97728 2.67158 10.0747C2.44438 10.2303 1.92188 10.6564 2.00988 11.3597C2.08008 11.9208 2.46438 12.2654 2.69858 12.4311C2.82718 12.5221 2.94938 12.5871 3.03828 12.6295C3.07958 12.6491 3.16528 12.6839 3.20248 12.6991L3.21188 12.7029L6.38048 13.7696ZM20.5189 4.61788L20.5166 4.61888C20.5082 4.62248 20.4999 4.62598 20.4914 4.62928L3.75738 11.1938C3.74868 11.1972 3.73988 11.2005 3.73098 11.2036L3.72168 11.2071C3.71098 11.2113 3.69298 11.2186 3.67028 11.2288C3.65748 11.2346 3.64408 11.241 3.63048 11.2478C3.64918 11.2584 3.66718 11.2675 3.68308 11.2751C3.69838 11.2824 3.71008 11.2874 3.71648 11.29L6.85908 12.348C6.91658 12.3674 6.97028 12.393 7.01948 12.424L17.3963 6.34948L17.406 6.34368C17.4135 6.33928 17.4235 6.33348 17.4354 6.32678C17.459 6.31348 17.4914 6.29568 17.53 6.27598C17.602 6.23938 17.7173 6.18498 17.8471 6.14488C17.9374 6.11688 18.2039 6.03818 18.492 6.13058C18.6698 6.18768 18.8539 6.31028 18.9737 6.51798C19.0331 6.62118 19.0648 6.72478 19.0802 6.81968C19.121 6.96918 19.1145 7.11678 19.0826 7.24418C19.0138 7.51868 18.821 7.73288 18.6455 7.89658C18.4951 8.03709 16.5497 9.91288 14.6306 11.7647C13.6735 12.6881 12.7263 13.6025 12.0182 14.2859L11.5532 14.7349L17.4251 19.2367C17.5598 19.2849 17.6394 19.2825 17.6762 19.2774C17.7201 19.2714 17.756 19.2545 17.7927 19.2252C17.8337 19.1924 17.8696 19.148 17.8964 19.1057L17.8975 19.104L20.788 4.53098C20.7451 4.54128 20.7017 4.55358 20.6599 4.56688C20.6126 4.58198 20.5735 4.59628 20.5477 4.60638C20.5348 4.61128 20.5256 4.61508 20.5206 4.61718L20.5189 4.61788ZM12.0576 17.0118L10.8861 16.1136L10.6023 17.9193L12.0576 17.0118ZM9.81148 14.3314L10.9764 13.2067C11.6845 12.5232 12.6319 11.6088 13.5891 10.6852L14.5616 9.74698L8.04148 13.5638L8.07648 13.6463C8.25418 14.0654 8.49388 14.6327 8.74138 15.2251C8.92658 15.668 9.12018 16.1344 9.29648 16.5662L9.57948 14.7658C9.60678 14.5922 9.69158 14.442 9.81148 14.3314Z"/>
</svg>