<svg width="24" height="24" viewBox="0 0 24 24" fill="transparent" stroke="currentColor" xmlns="http://www.w3.org/2000/svg">
    <path d="M16.8218 5.1344C16.0887 4.2939 15.648 3.198 15.648 2H14.7294M16.8218 5.1344C17.4899 5.9006 18.3945 6.4579 19.4246 6.6761C19.7447 6.7457 20.0787 6.7829 20.4267 6.7829V10.2191C18.6451 10.2191 16.9933 9.648 15.6478 8.6821V15.6707C15.6478 19.1627 12.8083 22 9.3239 22C7.5005 22 5.8534 21.2198 4.6981 19.98C3.6449 18.847 3 17.3331 3 15.6707C3 12.2298 5.756 9.4251 9.1708 9.3508M16.8218 5.1344C16.804 5.1228 16.7862 5.111 16.7685 5.0991M6.9856 17.3517C6.6422 16.8781 6.4381 16.2977 6.4381 15.6661C6.4381 14.0734 7.7326 12.7778 9.324 12.7778C9.6209 12.7778 9.9086 12.8288 10.1777 12.9124V9.4019C9.8993 9.3647 9.6163 9.3415 9.324 9.3415C9.2729 9.3415 8.8618 9.3688 8.8108 9.3688M14.7245 2H12.2098L12.2052 15.7775C12.1495 17.3192 10.8782 18.5591 9.3239 18.5591C8.3588 18.5591 7.5098 18.0808 6.9809 17.3564"
          stroke-width="1.4" stroke-linejoin="round"/>
</svg>