<svg width="24" height="24" viewBox="0 0 24 24" fill="transparent" stroke="currentColor" xmlns="http://www.w3.org/2000/svg">
    <path d="M20.715 8.4495C20.175 11.2432 18.3975 13.3245 16.6237 15.3832C15.7279 16.3708 14.7617 17.2919 13.7325 18.1395C13.1182 18.6548 12.3846 19.0081 11.5987 19.167C11.1828 19.2755 10.7436 19.253 10.3409 19.1027C9.9383 18.9524 9.5918 18.6815 9.3487 18.327C8.7744 17.5302 8.3593 16.6299 8.1262 15.6757C7.665 14.097 7.2075 12.5182 6.6975 10.9545C6.5161 10.423 6.2638 9.9185 5.9475 9.4545C5.61 8.9482 5.31 8.9257 4.7812 9.2257C4.4775 9.3982 4.1775 9.6007 3.8625 9.777L3 8.7645C4.3312 7.7295 5.625 6.6907 6.9637 5.7045C7.2163 5.4932 7.5102 5.337 7.8266 5.2459C8.143 5.1549 8.475 5.131 8.8012 5.1757C9.1493 5.2181 9.478 5.3588 9.749 5.5813C10.02 5.8038 10.2219 6.0989 10.3312 6.432C10.6087 7.2832 10.7662 8.172 10.9687 9.057C11.2612 10.3282 11.5312 11.607 11.8425 12.8745C11.9383 13.1868 12.0812 13.4827 12.2662 13.752C12.5437 14.1832 12.87 14.247 13.2412 13.8945C13.6327 13.5276 13.9858 13.1217 14.295 12.6832C14.8725 11.862 15.4462 11.0257 15.63 10.0057C15.7987 9.072 15.3225 8.5282 14.3737 8.5845C13.9987 8.607 13.605 8.697 13.2225 8.757C13.5412 6.7582 15.5062 5.067 17.6025 5.007C17.9671 4.9887 18.3326 5.0063 18.6937 5.0595C19.2002 5.1178 19.6707 5.35 20.025 5.7166C20.3792 6.0832 20.5953 6.5614 20.6362 7.0695C20.655 7.1707 20.6887 7.2645 20.715 7.362V8.4495Z" stroke-width="1.4" stroke-linecap="round"/>
</svg>