<svg width="24" height="24" viewBox="0 0 24 24" fill="currentColor" stroke="currentColor" xmlns="http://www.w3.org/2000/svg">
    <path d="M5.1209 13.2202L5.146 13.0259L5.0324 12.8663C4.3984 11.9755 4 10.9615 4 9.875C4 6.6387 7.1231 4 11 4C14.8769 4 18 6.6387 18 9.875C18 10.1977 17.9732 10.4933 17.9156 10.7864L17.838 11.1816L18.2076 11.3417C19.8802 12.0658 21 13.5178 21 15.1953C21 15.9685 20.7054 16.6876 20.246 17.347L20.137 17.5034L20.1599 17.6927L20.3239 19.0521L20.3244 19.0562L20.3864 19.5368L19.9638 19.3063L19.0786 18.7938L18.8372 18.6541L18.5915 18.7861C17.784 19.2199 16.8686 19.5 15.875 19.5C13.4078 19.5 11.3331 18.0259 10.8526 16.0831L10.7659 15.7328L10.4061 15.7046C9.343 15.6216 8.3504 15.3451 7.4714 14.911L7.2685 14.8109L7.0593 14.8972L5.1843 15.6706L5.177 15.6737L4.7842 15.8431L4.8396 15.3999L4.8399 15.398L5.1209 13.2202ZM16.8676 10.9536L17.3623 11.0394L17.4461 10.5444C17.4836 10.323 17.5 10.0985 17.5 9.875C17.5 6.8956 14.5734 4.5 11 4.5C7.4266 4.5 4.5 6.8956 4.5 9.875C4.5 10.9795 4.9013 12.0019 5.5947 12.8601C5.5949 12.8605 5.5952 12.8608 5.5955 12.8612L5.6592 12.9408L5.651 13.0561L5.4894 14.1871L5.3653 15.0558L6.1759 14.7197L7.1368 14.3212L7.1423 14.3189L7.2572 14.2697L7.3669 14.3245C8.2027 14.794 9.1744 15.0951 10.2234 15.2006L10.7143 15.25L10.7702 14.7598C11.0183 12.5857 13.209 10.8672 15.875 10.8672C16.2171 10.8672 16.5401 10.8967 16.8676 10.9536ZM18.7364 18.1855L18.861 18.0998L18.9444 18.1443L19.8397 18.6218L19.6729 17.6209L19.65 17.4835L19.6374 17.402L19.707 17.317C20.2098 16.7036 20.5 15.9907 20.5 15.1953C20.5 13.0787 18.416 11.3672 15.875 11.3672C13.334 11.3672 11.25 13.0787 11.25 15.1953C11.25 17.3159 13.3389 19 15.875 19C16.9507 19 17.9397 18.7024 18.7252 18.1929L18.7364 18.1855ZM7.8672 7.6719C7.8672 7.365 8.115 7.1172 8.4219 7.1172C8.7287 7.1172 8.9766 7.365 8.9766 7.6719C8.9766 7.9931 8.7146 8.25 8.4219 8.25C8.1292 8.25 7.8672 7.9931 7.8672 7.6719ZM12.8594 7.6719C12.8594 7.3792 13.1163 7.1172 13.4375 7.1172C13.7444 7.1172 13.9922 7.365 13.9922 7.6719C13.9922 7.9931 13.7302 8.25 13.4375 8.25C13.1306 8.25 12.8594 7.9787 12.8594 7.6719ZM13.6797 13.625C13.6797 13.4774 13.8148 13.3281 14 13.3281C14.1662 13.3281 14.2969 13.4588 14.2969 13.625C14.2969 13.79 14.1645 13.9219 14 13.9219C13.8148 13.9219 13.6797 13.7726 13.6797 13.625ZM17.4766 13.625C17.4766 13.46 17.6089 13.3281 17.7734 13.3281C17.9397 13.3281 18.0703 13.4588 18.0703 13.625C18.0703 13.7912 17.9397 13.9219 17.7734 13.9219C17.6072 13.9219 17.4766 13.7912 17.4766 13.625Z"/>
</svg>