<svg width="24" height="24" viewBox="0 0 24 24" fill="currentColor" xmlns="http://www.w3.org/2000/svg">
    <path fill-rule="evenodd" clip-rule="evenodd" d="M2.1001 21.3314C2.0182 21.6284 2.2887 21.9025 2.5868 21.8247L7.1941 20.6213C8.6485 21.409 10.2859 21.8275 11.953 21.8275H11.9579C17.4439 21.8275 21.9159 17.3815 21.9159 11.9163C21.9159 9.2673 20.8819 6.7759 19.0022 4.9049C17.1224 3.034 14.6242 2 11.9579 2C6.472 2 2 6.4461 2 11.9114C1.9994 13.65 2.4583 15.3582 3.3307 16.8645L2.1001 21.3314ZM4.7768 17.2629C4.8836 16.8752 4.8303 16.4608 4.6287 16.1127C3.8885 14.8348 3.4995 13.3855 3.5 11.9114C3.5 7.2816 7.2933 3.5 11.9579 3.5C14.2278 3.5 16.3454 4.377 17.944 5.9681C19.5407 7.5574 20.4159 9.6661 20.4159 11.9163C20.4159 16.5459 16.6226 20.3275 11.9579 20.3275H11.953C10.5365 20.3275 9.1445 19.9718 7.9085 19.3023C7.574 19.1211 7.1831 19.0738 6.815 19.17L4.0526 19.8915L4.7768 17.2629Z"/>
    <path d="M8.80184 7.16992C8.98484 7.17482 9.18764 7.18462 9.38064 7.61302C9.50864 7.89822 9.72424 8.42322 9.89984 8.85092C10.0364 9.18372 10.1489 9.45752 10.177 9.51362C10.2413 9.64162 10.2809 9.78932 10.1968 9.96162C10.1869 9.98192 10.1775 10.0013 10.1685 10.02C10.1011 10.16 10.053 10.2597 9.93964 10.3899C9.89304 10.4435 9.84444 10.5022 9.79604 10.5607C9.71084 10.6636 9.62624 10.7658 9.55374 10.838C9.42514 10.9659 9.29154 11.1039 9.43994 11.3599C9.58844 11.6159 10.1078 12.4579 10.8746 13.1373C11.6989 13.8712 12.4157 14.1805 12.778 14.3368C12.8484 14.3672 12.9054 14.3918 12.9472 14.4126C13.2045 14.5406 13.3578 14.5209 13.5062 14.3486C13.6547 14.1762 14.1493 13.6001 14.3225 13.3441C14.4907 13.0881 14.6638 13.1275 14.9013 13.2161C15.1387 13.3047 16.4051 13.9251 16.6623 14.0531C16.7131 14.0784 16.7607 14.1012 16.8047 14.1224C16.9837 14.2082 17.1054 14.2665 17.1569 14.3535C17.2212 14.4618 17.2212 14.9739 17.0086 15.5746C16.7909 16.1752 15.7422 16.7513 15.2673 16.7956C15.2223 16.7999 15.1776 16.8053 15.1315 16.8108C14.6963 16.8635 14.1438 16.9303 12.1755 16.1555C9.75014 15.2018 8.14914 12.8354 7.82544 12.357C7.79994 12.3192 7.78234 12.2932 7.77294 12.2806L7.76744 12.2733C7.62014 12.0762 6.71924 10.8707 6.71924 9.62692C6.71924 8.43682 7.30544 7.81732 7.57284 7.53472C7.58974 7.51682 7.60544 7.50022 7.61954 7.48492C7.85694 7.22892 8.13404 7.16492 8.30714 7.16492C8.48034 7.16492 8.65344 7.16492 8.80184 7.16992Z"/>
</svg>