<svg width="72" height="88" viewBox="0 0 72 88" fill="none" xmlns="http://www.w3.org/2000/svg">
    <rect width="72" height="88" fill="#0F0F0F"/>
    <path d="M58.5414 38.0572L28.6489 20.9158C27.601 20.3152 26.4124 19.9993 25.203 20C23.9936 20.0007 22.8057 20.3179 21.7586 20.9197C20.7114 21.5215 19.842 22.3867 19.2375 23.4285C18.633 24.4703 18.3147 25.652 18.3147 26.8548V61.1466C18.3165 62.3496 18.6363 63.5312 19.2419 64.5726C19.8474 65.614 20.7176 66.4789 21.7652 67.0804C22.8129 67.682 24.001 67.9991 25.2107 68C26.4204 68.0009 27.6091 67.6855 28.657 67.0856L58.5414 49.9442C59.5924 49.3435 60.4653 48.4777 61.0727 47.4342C61.6801 46.3907 61.9999 45.2064 61.9999 44.0007C61.9999 42.7951 61.6801 41.6107 61.0727 40.5672C60.4653 39.5237 59.5924 38.6579 58.5414 38.0572Z" fill="#4E2EE5"/>
    <path d="M9.84031 43.4893C9.76267 43.6365 9.71128 43.7959 9.68835 43.9606C9.68835 44.3517 9.92077 44.414 9.92077 44.414L49.1637 44.2628C49.231 44.1699 49.2854 44.0682 49.3246 43.9606C49.3216 43.825 49.3004 43.6905 49.2622 43.5605L9.84031 43.4893Z" fill="#7193F9"/>
    <path d="M11.4583 47.5969L18.3058 52.9313L47.5194 46.2899C48.0393 46.192 48.507 45.9105 48.8358 45.4972C49.1637 45.084 49.3316 44.5667 49.3075 44.0405H9.68835C9.68835 44.7307 9.84987 45.4113 10.1602 46.0285C10.4705 46.6459 10.9211 47.1828 11.4761 47.5969H11.4583Z" fill="#597DFA"/>
    <path d="M11.4582 40.3955L18.3147 35.1055L47.5284 41.7558C48.0473 41.8535 48.5129 42.1337 48.8418 42.545C49.1696 42.9564 49.3386 43.4715 49.3164 43.9962H9.68826C9.68263 43.3005 9.83861 42.6129 10.1441 41.9869C10.4563 41.3649 10.9055 40.821 11.4582 40.3955Z" fill="#7193F9"/>
</svg>