<svg xmlns="http://www.w3.org/2000/svg"   width="18px" height="18px" viewBox="0 0 28 28">
		<g>
			<path d="M25.5,28h-23C1.12,28,0,26.88,0,25.5v-23C0,1.12,1.12,0,2.5,0h23C26.88,0,28,1.12,28,2.5v23
				C28,26.88,26.88,28,25.5,28z M2.5,1C1.67,1,1,1.67,1,2.5v23C1,26.33,1.67,27,2.5,27h23c0.83,0,1.5-0.67,1.5-1.5v-23
				C27,1.67,26.33,1,25.5,1H2.5z"/>
		</g>
		<g>
			<rect x="0.67" y="8" width="26.64" height="1"/>
		</g>
		<g>
			<rect x="8" y="8" width="1" height="19.11"/>
		</g>
		<g>
			<rect x="8.13" y="17.55" width="19.37" height="1"/>
		</g>
	</svg>