<?xml version="1.0" encoding="iso-8859-1"?>
<!-- Uploaded to: SVG Repo, www.svgrepo.com, Generator: SVG Repo Mixer Tools -->
<svg version="1.1" id="Layer_1" xmlns="http://www.w3.org/2000/svg" xmlns:xlink="http://www.w3.org/1999/xlink" 
	 viewBox="0 0 491.52 491.52" xml:space="preserve">
<g>
	<g>
		<path d="M0,0v491.52h491.52V0H0z M471.04,471.04H20.48V102.4h450.56V471.04z M471.04,81.92H20.48V20.48h450.56V81.92z"/>
	</g>
</g>
<g>
	<g>
		<rect x="430.08" y="40.96" width="20.48" height="20.48"/>
	</g>
</g>
<g>
	<g>
		<rect x="389.12" y="40.96" width="20.48" height="20.48"/>
	</g>
</g>
<g>
	<g>
		<rect x="348.16" y="40.96" width="20.48" height="20.48"/>
	</g>
</g>
<g>
	<g>
		<rect x="51.2" y="40.96" width="245.76" height="20.48"/>
	</g>
</g>
<g>
	<g>
		<path d="M40.96,163.84v81.92h81.92v-81.92H40.96z M102.4,225.28H61.44v-40.96h40.96V225.28z"/>
	</g>
</g>
<g>
	<g>
		<path d="M143.36,163.84v81.92h307.2v-81.92H143.36z M430.08,225.28H163.84v-40.96h266.24V225.28z"/>
	</g>
</g>
<g>
	<g>
		<rect x="378.88" y="194.56" width="20.48" height="20.48"/>
	</g>
</g>
<g>
	<g>
		<rect x="317.44" y="194.56" width="20.48" height="20.48"/>
	</g>
</g>
<g>
	<g>
		<rect x="256" y="194.56" width="20.48" height="20.48"/>
	</g>
</g>
<g>
	<g>
		<rect x="194.56" y="194.56" width="20.48" height="20.48"/>
	</g>
</g>
<g>
	<g>
		<path d="M40.96,276.48v81.92h81.92v-81.92H40.96z M102.4,337.92H61.44v-40.96h40.96V337.92z"/>
	</g>
</g>
<g>
	<g>
		<path d="M143.36,276.48v81.92h307.2v-81.92H143.36z M430.08,337.92H163.84v-40.96h266.24V337.92z"/>
	</g>
</g>
<g>
	<g>
		<rect x="256" y="307.2" width="20.48" height="20.48"/>
	</g>
</g>
<g>
	<g>
		<rect x="194.56" y="307.2" width="20.48" height="20.48"/>
	</g>
</g>
<g>
	<g>
		<rect x="317.44" y="307.2" width="20.48" height="20.48"/>
	</g>
</g>
<g>
	<g>
		<rect x="378.88" y="307.2" width="20.48" height="20.48"/>
	</g>
</g>
<g>
	<g>
		<rect x="204.8" y="389.12" width="184.32" height="20.48"/>
	</g>
</g>
</svg>