<svg xmlns="http://www.w3.org/2000/svg" id="header" width="18px" height="18px" viewBox="0 0 28 28">
		<g>
			<path d="M25.5,28h-23C1.12,28,0,26.88,0,25.5v-23C0,1.12,1.12,0,2.5,0h23C26.88,0,28,1.12,28,2.5v23
				C28,26.88,26.88,28,25.5,28z M2.5,1C1.67,1,1,1.67,1,2.5v23C1,26.33,1.67,27,2.5,27h23c0.83,0,1.5-0.67,1.5-1.5v-23
				C27,1.67,26.33,1,25.5,1H2.5z"/>
		</g>
		<g>
			<rect x="0.67" y="8" width="26.64" height="1"/>
		</g>
		<g>
			<g>
				<path d="M24.2,6h-3c-0.28,0-0.5-0.22-0.5-0.5S20.92,5,21.2,5h3c0.28,0,0.5,0.22,0.5,0.5S24.47,6,24.2,6z"/>
			</g>
			<g>
				<path d="M24.2,4h-3c-0.28,0-0.5-0.22-0.5-0.5S20.92,3,21.2,3h3c0.28,0,0.5,0.22,0.5,0.5S24.47,4,24.2,4z"/>
			</g>
		</g>
		<g>
			<path d="M5.88,6h-2c-0.28,0-0.5-0.22-0.5-0.5v-2c0-0.28,0.22-0.5,0.5-0.5h2c0.28,0,0.5,0.22,0.5,0.5v2
				C6.38,5.78,6.16,6,5.88,6z M4.38,5h1V4h-1V5z"/>
		</g>
	</svg>