<svg xmlns="http://www.w3.org/2000/svg" width="18px" height="18px" viewBox="0 0 28 28">
		<g>
			<path d="M22.57,28.02H16.5c-0.28,0-0.5-0.22-0.5-0.5v-8.36h-4v8.36c0,0.28-0.22,0.5-0.5,0.5H5.43
				c-0.28,0-0.5-0.22-0.5-0.5V13.68H0.5c-0.21,0-0.39-0.12-0.46-0.32c-0.08-0.19-0.03-0.41,0.12-0.55l13.5-12.68
				c0.19-0.18,0.49-0.18,0.68,0l13.5,12.68c0.15,0.14,0.2,0.36,0.12,0.55c-0.08,0.19-0.26,0.32-0.46,0.32h-4.43v13.84
				C23.07,27.79,22.84,28.02,22.57,28.02z M17,27.02h5.07V13.18c0-0.28,0.22-0.5,0.5-0.5h3.67L14,1.19L1.76,12.68h3.67
				c0.28,0,0.5,0.22,0.5,0.5v13.84H11v-8.36c0-0.28,0.22-0.5,0.5-0.5h5c0.28,0,0.5,0.22,0.5,0.5V27.02z"/>
		</g>
	</svg>