<?xml version="1.0" encoding="iso-8859-1"?>
<!-- Uploaded to: SVG Repo, www.svgrepo.com, Generator: SVG Repo Mixer Tools -->
<svg height="800px" width="800px" version="1.1" id="Layer_1" xmlns="http://www.w3.org/2000/svg" xmlns:xlink="http://www.w3.org/1999/xlink" 
	 viewBox="0 0 491.52 491.52" xml:space="preserve">
<g>
	<g>
		<path d="M491.52,419.84V0H0v419.84h153.6v51.2h-40.96v20.48h266.24v-20.48h-40.96v-51.2H491.52z M20.48,20.48h450.56v266.24
			H161.953c-4.241-11.894-15.501-20.48-28.833-20.48c-13.332,0-24.592,8.586-28.833,20.48H20.48V20.48z M143.36,296.96
			c0,5.645-4.595,10.24-10.24,10.24c-5.645,0-10.24-4.595-10.24-10.24c0-5.645,4.595-10.24,10.24-10.24
			C138.765,286.72,143.36,291.315,143.36,296.96z M20.48,307.2h83.808c4.241,11.894,15.501,20.48,28.832,20.48
			c13.332,0,24.593-8.586,28.833-20.48H471.04v40.96H20.48V307.2z M317.44,471.04H174.08v-51.2h143.36V471.04z M20.48,399.36v-30.72
			h450.56v30.72H20.48z"/>
	</g>
</g>
<g>
	<g>
		<path d="M204.8,99.6v118.24l102.4-59.12L204.8,99.6z M225.28,135.07l40.96,23.65l-40.96,23.65V135.07z"/>
	</g>
</g>
</svg>