<svg xmlns="http://www.w3.org/2000/svg"  width="18px" height="18px" viewBox="0 0 28 28">
		<g>
			<g>
				<g>
					<path d="M24.94,5.32c-0.12,0-0.23-0.04-0.33-0.12C13.65-4.16,3.95,5.08,3.86,5.18c-0.2,0.19-0.51,0.19-0.71-0.01
						c-0.19-0.2-0.19-0.52,0.01-0.71c0.1-0.1,10.45-9.96,22.11-0.02c0.21,0.18,0.24,0.5,0.06,0.71C25.23,5.26,25.09,5.32,24.94,5.32z"
						/>
				</g>
			</g>
			<g>
				<g>
					<path  d="M25.51,10.5c-0.15,0-0.29-0.06-0.39-0.19c-3.2-3.96-6.75-5.99-10.57-6.02c-6.63-0.04-11.57,5.74-11.61,5.8
						c-0.18,0.21-0.49,0.24-0.71,0.06C2.01,9.98,1.98,9.66,2.16,9.45C3.96,7.3,8.92,3.22,14.55,3.29c4.14,0.04,7.95,2.19,11.35,6.4
						c0.17,0.22,0.14,0.53-0.08,0.71C25.73,10.47,25.62,10.5,25.51,10.5z"/>
				</g>
			</g>
			<g>
				<g>
					<path d="M17.21,27.76c-0.07,0-0.15-0.02-0.22-0.05c-6.33-3.14-7.27-6.98-7.26-8.99c0.01-1.91,0.92-3.69,2.22-4.33
						c2.36-1.38,4.01-0.8,4.78-0.34c1.19,0.72,1.89,2.1,1.82,3.6c-0.07,1.61,0.29,2.8,1.08,3.52c1,0.91,2.43,0.83,2.71,0.8
						c0.88-0.35,1.48-0.93,1.83-1.76c1.03-2.47-0.6-6.23-0.61-6.26c-3.75-6.73-8.6-6.72-11.16-6.11c-4.32,1.03-8.24,5.16-8.39,8.85
						c-0.23,5.58,1.72,7.82,2.65,8.9c0.18,0.21,0.16,0.53-0.05,0.71c-0.21,0.18-0.53,0.16-0.71-0.05c-1.02-1.17-3.14-3.62-2.9-9.6
						c0.17-4.16,4.36-8.64,9.16-9.78c2.83-0.67,8.2-0.71,12.29,6.64c0.1,0.21,1.84,4.23,0.64,7.09c-0.46,1.1-1.29,1.89-2.46,2.33
						c-0.03,0.01-0.07,0.02-0.11,0.03c-0.09,0.01-2.11,0.29-3.57-1.04c-1.03-0.93-1.5-2.38-1.41-4.31c0.05-1.13-0.46-2.16-1.34-2.69
						c-1-0.61-2.35-0.48-3.79,0.36c-0.85,0.42-1.68,1.72-1.69,3.44c-0.01,3.02,2.43,5.97,6.7,8.09c0.25,0.12,0.35,0.42,0.23,0.67
						C17.57,27.66,17.39,27.76,17.21,27.76z"/>
				</g>
			</g>
			<g>
				<g>
					<path d="M20.91,26.04c-0.01,0-0.01,0-0.02,0c-0.07,0-6.5-0.35-7.16-8.24c-0.02-0.28,0.18-0.52,0.46-0.54
						c0.28-0.02,0.52,0.18,0.54,0.46c0.59,7.01,5.97,7.31,6.2,7.32c0.28,0.01,0.49,0.24,0.48,0.52C21.4,25.83,21.18,26.04,20.91,26.04
						z"/>
				</g>
			</g>
			<g>
				<g>
					<path d="M11.79,27.97c-0.11,0-0.23-0.04-0.32-0.12c-1.74-1.48-3.23-3.26-4.22-5.03c-1-1.87-1.36-5.22-0.11-8.02
						c0.96-2.16,2.7-3.6,5.04-4.18c2.69-0.66,4.95-0.26,6.71,1.18c2.58,2.1,3.32,5.93,3.28,7.02c-0.01,0.28-0.26,0.49-0.52,0.48
						c-0.28-0.01-0.49-0.24-0.48-0.52c0.03-0.82-0.6-4.33-2.91-6.21c-1.51-1.23-3.47-1.56-5.84-0.98c-2.02,0.5-3.53,1.75-4.36,3.61
						c-1.1,2.48-0.79,5.52,0.07,7.13c0.92,1.66,2.34,3.35,3.99,4.75c0.21,0.18,0.24,0.5,0.06,0.71
						C12.07,27.91,11.93,27.97,11.79,27.97z"/>
				</g>
			</g>
		</g>
	</symbol>
    
</svg>
