<svg xmlns="http://www.w3.org/2000/svg" width="18px" height="18px" viewBox="0 0 28 28">
		<g>
			<g>
				<path d="M27.5,27.99H16.2c-0.26,0-0.47-0.19-0.5-0.45c-0.03-0.26,0.15-0.49,0.4-0.54c0.92-0.19,2.53-0.73,2.96-1.39
					c0.09-0.13,0.11-0.25,0.08-0.39c-0.03-0.16-0.05-0.27-0.09-0.36l-7.26-18.8c-0.04-0.12-0.04-0.25,0-0.37l2.18-5.38
					C14.05,0.12,14.23,0,14.44,0c0,0,0,0,0,0c0.21,0,0.39,0.13,0.46,0.32l9.06,23.38c0.13,0.35,0.31,0.63,0.48,0.9l0.14,0.23
					c1,1.68,3.02,2.17,3.04,2.18c0.25,0.06,0.41,0.29,0.38,0.54C27.97,27.8,27.76,27.99,27.5,27.99z M18.97,26.99h6.3
					c-0.56-0.39-1.13-0.93-1.55-1.65l-0.13-0.21c-0.18-0.3-0.39-0.63-0.56-1.06l-8.61-22.2L12.8,5.89l7.19,18.62
					c0.05,0.13,0.09,0.29,0.13,0.47c0.09,0.44,0.02,0.83-0.22,1.19C19.68,26.48,19.35,26.76,18.97,26.99z"/>
			</g>
		</g>
		<g>
			<path d="M4.71,24.59c-0.06,0-0.13-0.01-0.19-0.04c-0.26-0.1-0.38-0.4-0.27-0.65l9.72-23.59
				c0.11-0.26,0.4-0.38,0.65-0.27c0.26,0.1,0.38,0.4,0.27,0.65L5.18,24.28C5.1,24.47,4.91,24.59,4.71,24.59z"/>
		</g>
		<g>
			<path d="M16.4,17.38H7.68c-0.28,0-0.5-0.22-0.5-0.5s0.22-0.5,0.5-0.5h8.72c0.28,0,0.5,0.22,0.5,0.5
				S16.68,17.38,16.4,17.38z"/>
		</g>
		<g>
			<path d="M6.49,28h-6C0.22,28,0,27.78,0,27.5S0.22,27,0.5,27h6c0.28,0,0.5,0.22,0.5,0.5S6.77,28,6.49,28z"/>
		</g>
		<g>
			<path d="M6.51,28H0.5c-0.24,0-0.44-0.16-0.49-0.39s0.07-0.46,0.28-0.56c0.03-0.01,3.17-1.46,4.13-3.56
				c0.1-0.23,0.36-0.35,0.6-0.27c0.24,0.07,0.39,0.31,0.35,0.56c-0.09,0.57-0.2,2.21,0.4,2.91C5.95,26.9,6.19,27,6.51,27
				c0.28,0,0.5,0.22,0.5,0.5S6.78,28,6.51,28z M2.39,27h2.38c-0.28-0.48-0.4-1.07-0.45-1.62C3.73,26.04,3.02,26.58,2.39,27z"/>
		</g>
	</svg>