<?xml version="1.0" encoding="iso-8859-1"?>
<!-- Uploaded to: SVG Repo, www.svgrepo.com, Generator: SVG Repo Mixer Tools -->
<svg version="1.1" id="Layer_1" xmlns="http://www.w3.org/2000/svg" xmlns:xlink="http://www.w3.org/1999/xlink" 
	 viewBox="0 0 491.52 491.52" xml:space="preserve">
<g>
	<g>
		<path d="M0,0v491.52h491.52V0H0z M471.04,471.04H20.48V102.4h450.56V471.04z M471.04,81.92H20.48V20.48h450.56V81.92z"/>
	</g>
</g>
<g>
	<g>
		<rect x="430.08" y="40.96" width="20.48" height="20.48"/>
	</g>
</g>
<g>
	<g>
		<rect x="389.12" y="40.96" width="20.48" height="20.48"/>
	</g>
</g>
<g>
	<g>
		<rect x="348.16" y="40.96" width="20.48" height="20.48"/>
	</g>
</g>
<g>
	<g>
		<rect x="51.2" y="40.96" width="245.76" height="20.48"/>
	</g>
</g>
<g>
	<g>
		<path d="M205.85,161.46V289.1l110.54-63.82L205.85,161.46z M226.33,196.94l49.1,28.34l-49.1,28.34V196.94z"/>
	</g>
</g>
<g>
	<g>
		<path d="M40.96,122.88v204.8h409.6v-204.8H40.96z M430.08,307.2H61.44V143.36h368.64V307.2z"/>
	</g>
</g>
<g>
	<g>
		<rect x="40.96" y="348.16" width="174.08" height="20.48"/>
	</g>
</g>
<g>
	<g>
		<rect x="40.96" y="389.12" width="174.08" height="20.48"/>
	</g>
</g>
<g>
	<g>
		<rect x="40.96" y="430.08" width="112.64" height="20.48"/>
	</g>
</g>
<g>
	<g>
		<rect x="276.48" y="348.16" width="174.08" height="20.48"/>
	</g>
</g>
<g>
	<g>
		<rect x="276.48" y="389.12" width="174.08" height="20.48"/>
	</g>
</g>
<g>
	<g>
		<rect x="276.48" y="430.08" width="112.64" height="20.48"/>
	</g>
</g>
</svg>