<svg xmlns="http://www.w3.org/2000/svg" width="18px" height="18px" viewBox="0 0 28 28">
		<g>
			<path d="M25.5,13h-8c-1.38,0-2.5-1.12-2.5-2.5v-8C15,1.12,16.12,0,17.5,0h8C26.88,0,28,1.12,28,2.5v8
				C28,11.88,26.88,13,25.5,13z M17.5,1C16.67,1,16,1.67,16,2.5v8c0,0.83,0.67,1.5,1.5,1.5h8c0.83,0,1.5-0.67,1.5-1.5v-8
				C27,1.67,26.33,1,25.5,1H17.5z"/>
		</g>
		<g>
			<path d="M25.5,27.96h-8c-1.38,0-2.5-1.12-2.5-2.5v-8c0-1.38,1.12-2.5,2.5-2.5h8c1.38,0,2.5,1.12,2.5,2.5v8
				C28,26.84,26.88,27.96,25.5,27.96z M17.5,15.96c-0.83,0-1.5,0.67-1.5,1.5v8c0,0.83,0.67,1.5,1.5,1.5h8c0.83,0,1.5-0.67,1.5-1.5v-8
				c0-0.83-0.67-1.5-1.5-1.5H17.5z"/>
		</g>
		<g>
			<path d="M10.5,13h-8C1.12,13,0,11.88,0,10.5v-8C0,1.12,1.12,0,2.5,0h8C11.88,0,13,1.12,13,2.5v8
				C13,11.88,11.88,13,10.5,13z M2.5,1C1.67,1,1,1.67,1,2.5v8C1,11.33,1.67,12,2.5,12h8c0.83,0,1.5-0.67,1.5-1.5v-8
				C12,1.67,11.33,1,10.5,1H2.5z"/>
		</g>
		<g>
			<path d="M10.5,27.96h-8c-1.38,0-2.5-1.12-2.5-2.5v-8c0-1.38,1.12-2.5,2.5-2.5h8c1.38,0,2.5,1.12,2.5,2.5v8
				C13,26.84,11.88,27.96,10.5,27.96z M2.5,15.96c-0.83,0-1.5,0.67-1.5,1.5v8c0,0.83,0.67,1.5,1.5,1.5h8c0.83,0,1.5-0.67,1.5-1.5v-8
				c0-0.83-0.67-1.5-1.5-1.5H2.5z"/>
		</g>
		<g>
			<path d="M24,21.96h-5c-0.28,0-0.5-0.22-0.5-0.5s0.22-0.5,0.5-0.5h5c0.28,0,0.5,0.22,0.5,0.5S24.28,21.96,24,21.96z"/>
		</g>
		<g>
			<path d="M21.5,24.46c-0.28,0-0.5-0.22-0.5-0.5v-5c0-0.28,0.22-0.5,0.5-0.5s0.5,0.22,0.5,0.5v5
				C22,24.24,21.78,24.46,21.5,24.46z"/>
		</g>
	</svg>